<?xml version="1.0" standalone="no"?>
<!DOCTYPE svg PUBLIC "-//W3C//DTD SVG 20010904//EN"
 "http://www.w3.org/TR/2001/REC-SVG-20010904/DTD/svg10.dtd">
<svg version="1.0" xmlns="http://www.w3.org/2000/svg"
 width="453.000000pt" height="360.000000pt" viewBox="0 0 453.000000 360.000000"
 preserveAspectRatio="xMidYMid meet">

<g transform="translate(0.000000,360.000000) scale(0.100000,-0.100000)"
fill="currentColor" stroke="none">
<path d="M2044 3586 c-391 -65 -709 -229 -975 -503 -270 -279 -443 -634 -489
-1003 -12 -97 -22 -158 -37 -220 -8 -31 -12 -35 -39 -32 -91 8 -103 6 -129
-18 -23 -21 -26 -32 -24 -75 l3 -50 -147 -3 c-122 -2 -147 -5 -147 -17 0 -13
118 -15 935 -15 824 0 935 2 935 15 0 13 -77 15 -632 15 -614 0 -634 1 -666
20 -39 24 -72 75 -72 113 0 43 29 97 64 119 46 28 119 20 156 -18 16 -16 32
-41 35 -56 l7 -28 -60 0 c-58 0 -85 -11 -61 -25 17 -11 531 -7 542 4 18 18
-11 21 -203 23 -175 3 -184 4 -190 23 -9 33 -40 79 -68 100 -22 16 -42 20
-105 19 l-79 0 7 65 c41 411 260 833 578 1112 506 444 1199 543 1804 259 452
-213 798 -636 924 -1130 24 -91 49 -233 49 -277 0 -36 -6 -38 -57 -24 -70 20
-149 -26 -184 -106 l-18 -43 -75 0 c-65 0 -99 -10 -84 -26 5 -4 146 -7 266 -5
48 1 62 4 62 16 0 12 -14 15 -65 15 -74 0 -79 7 -42 61 27 41 60 59 107 59 47
0 80 -18 107 -59 41 -61 22 -154 -39 -191 -30 -18 -50 -20 -239 -20 -113 0
-208 3 -211 6 -3 3 -1 22 5 42 6 20 11 80 11 132 1 91 -1 98 -37 171 -33 67
-97 149 -116 149 -4 0 -28 -13 -54 -30 -26 -16 -54 -30 -62 -30 -7 0 -17 -4
-20 -10 -3 -5 -17 -10 -30 -10 -13 0 -27 -4 -30 -10 -11 -18 -46 -10 -83 20
-40 32 -110 65 -212 99 -139 48 -232 96 -281 144 -41 41 -69 89 -69 117 0 22
-36 67 -46 58 -4 -4 -2 -13 3 -20 6 -7 18 -37 29 -66 30 -85 111 -157 232
-203 12 -5 32 -13 45 -18 12 -5 38 -14 57 -21 94 -33 170 -67 221 -101 l56
-38 54 13 c58 13 119 39 160 68 l27 18 35 -39 c19 -21 49 -69 67 -106 29 -60
32 -78 32 -146 -1 -42 -6 -97 -11 -121 -6 -23 -11 -55 -11 -70 l0 -28 520 0
c456 0 520 2 520 15 0 13 -23 15 -145 15 l-145 0 0 53 c0 43 -5 58 -22 74 -34
30 -61 35 -108 19 -30 -10 -42 -11 -45 -3 -2 7 -12 39 -23 72 -11 33 -25 107
-31 165 -25 213 -73 376 -172 575 -240 484 -665 818 -1189 932 -142 31 -443
41 -576 19z m-1565 -1791 c29 -14 101 -91 101 -107 0 -4 -35 -8 -78 -8 -90 0
-122 15 -122 58 0 32 8 45 35 60 26 15 31 15 64 -3z m3679 -1 c27 -18 30 -69
5 -96 -13 -15 -31 -18 -100 -18 -45 0 -83 3 -83 6 0 14 65 80 99 101 43 27 50
28 79 7z"/>
<path d="M2171 3454 c0 -11 3 -14 6 -6 3 7 2 16 -1 19 -3 4 -6 -2 -5 -13z"/>
<path d="M2270 3461 c0 -6 5 -13 10 -16 6 -3 10 1 10 9 0 9 -4 16 -10 16 -5 0
-10 -4 -10 -9z"/>
<path d="M2380 3461 c0 -6 5 -13 10 -16 6 -3 10 1 10 9 0 9 -4 16 -10 16 -5 0
-10 -4 -10 -9z"/>
<path d="M2060 3450 c0 -5 7 -10 16 -10 8 0 12 5 9 10 -3 6 -10 10 -16 10 -5
0 -9 -4 -9 -10z"/>
<path d="M2480 3450 c0 -5 7 -10 15 -10 8 0 15 5 15 10 0 6 -7 10 -15 10 -8 0
-15 -4 -15 -10z"/>
<path d="M2590 3436 c0 -9 5 -16 10 -16 6 0 10 4 10 9 0 6 -4 13 -10 16 -5 3
-10 -1 -10 -9z"/>
<path d="M1955 3430 c-3 -5 1 -10 9 -10 9 0 16 5 16 10 0 6 -4 10 -9 10 -6 0
-13 -4 -16 -10z"/>
<path d="M1860 3404 c0 -8 5 -12 10 -9 6 4 8 11 5 16 -9 14 -15 11 -15 -7z"/>
<path d="M2696 3411 c-4 -7 -5 -15 -2 -18 9 -9 19 4 14 18 -4 11 -6 11 -12 0z"/>
<path d="M2435 3380 c-11 -12 -17 -32 -16 -52 5 -65 1 -92 -25 -162 -15 -39
-31 -76 -35 -82 -5 -6 -35 -16 -66 -23 -167 -35 -249 -56 -358 -93 -349 -118
-561 -249 -492 -306 12 -11 101 -62 197 -115 30 -16 81 -45 113 -63 32 -19 62
-34 68 -34 21 0 7 -17 -25 -28 -19 -7 -36 -19 -39 -26 -4 -11 1 -11 34 0 46
16 86 10 157 -24 56 -27 112 -81 112 -109 0 -12 3 -13 14 -4 8 7 16 8 18 4 3
-4 -17 -27 -43 -51 l-47 -43 -34 29 c-18 16 -67 51 -108 77 -41 26 -85 57 -97
68 -13 11 -26 17 -30 14 -11 -12 29 -47 100 -90 38 -22 89 -59 114 -82 l46
-41 -18 -39 c-11 -22 -30 -58 -43 -79 -14 -23 -25 -56 -26 -79 -1 -33 5 -44
36 -71 27 -23 38 -40 40 -66 2 -27 12 -41 45 -65 23 -16 42 -35 42 -42 2 -25
22 -23 31 4 21 56 65 135 80 141 8 3 20 12 26 20 9 12 23 13 70 7 32 -4 87 -7
122 -6 61 2 62 2 62 -24 0 -31 -23 -42 -61 -28 -16 7 -29 7 -29 2 0 -5 7 -9
15 -9 8 0 15 -4 15 -10 0 -19 -40 -30 -112 -31 -54 0 -67 -3 -50 -9 15 -6 22
-18 22 -35 l0 -25 39 19 c31 16 42 18 54 8 14 -11 137 -286 137 -307 0 -12 30
-34 37 -27 3 4 1 12 -4 19 -5 7 -36 78 -68 158 -32 80 -62 149 -67 154 -11 13
-10 46 1 46 6 0 13 -5 16 -10 4 -6 11 -7 17 -4 6 4 8 -1 4 -14 -4 -12 -2 -24
6 -29 7 -4 13 -17 13 -28 0 -11 6 -19 13 -17 9 1 10 -6 6 -25 -7 -25 -6 -27 9
-14 15 12 16 10 11 -18 -4 -20 -3 -31 5 -31 6 0 11 -9 11 -21 0 -11 5 -17 10
-14 6 4 10 -5 10 -19 0 -14 5 -26 10 -26 6 0 10 -9 10 -20 0 -11 5 -20 10 -20
6 0 10 -9 10 -20 0 -11 5 -20 10 -20 6 0 10 -7 10 -15 0 -8 7 -15 15 -15 24 0
24 -1 -55 175 -92 207 -95 216 -70 248 11 14 20 29 20 34 0 9 -28 26 -63 37
-9 3 -20 14 -23 23 -3 10 -10 26 -15 35 -13 26 -3 41 41 62 22 11 40 25 40 33
0 7 9 18 19 25 17 11 18 14 5 52 -8 22 -13 45 -10 52 3 7 -15 33 -39 58 -84
87 -110 174 -81 263 20 60 62 106 76 83 8 -12 10 -9 10 12 0 22 -4 25 -21 21
-19 -5 -20 -3 -14 18 4 13 20 51 35 84 15 33 44 103 65 155 21 52 42 100 46
105 4 6 10 26 14 46 9 48 -9 61 -95 67 -64 4 -101 20 -72 30 7 2 12 10 12 18
0 22 58 144 68 144 18 0 62 53 62 76 0 48 -81 72 -115 34z m80 -14 c17 -12 18
-18 7 -40 -22 -48 -101 -25 -84 24 11 32 46 39 77 16z m-7 -319 c39 0 42 -1
42 -26 0 -30 -21 -81 -32 -81 -5 0 -8 4 -8 8 0 10 -58 8 -83 -3 -27 -11 -67
14 -67 42 0 13 5 23 10 23 6 0 10 9 10 19 0 22 24 32 60 24 14 -3 44 -6 68 -6z
m-188 -12 c-9 -11 -10 -15 0 -15 6 0 10 -8 8 -17 -3 -17 -24 -24 -114 -40 -48
-8 -104 -58 -104 -93 0 -42 -10 -60 -34 -60 -20 -1 -20 -1 4 -15 14 -8 37 -14
53 -15 15 0 27 -2 27 -5 0 -2 -13 -26 -30 -52 -37 -59 -38 -73 -2 -73 26 1 26
1 8 15 -18 13 -18 16 -2 39 24 38 48 47 84 34 26 -10 34 -9 50 5 27 25 92 35
92 15 0 -9 -6 -20 -12 -26 -25 -19 -89 -52 -103 -52 -8 0 -15 -4 -15 -10 0 -5
-17 -10 -37 -10 l-38 0 28 -15 c18 -9 34 -11 45 -6 9 5 40 19 67 32 28 13 53
25 58 27 16 8 5 -10 -24 -38 -18 -16 -40 -30 -50 -30 -11 0 -19 -4 -19 -10 0
-5 -13 -10 -29 -10 -17 0 -33 5 -36 10 -8 13 -45 13 -45 0 0 -5 10 -15 22 -21
l21 -11 -24 -14 c-13 -7 -31 -13 -38 -14 -24 0 -71 -52 -71 -76 0 -15 13 -33
35 -50 21 -15 34 -33 31 -41 -3 -7 1 -13 9 -13 8 0 15 7 15 15 0 10 10 15 29
15 16 0 42 5 57 10 15 6 30 8 33 4 3 -4 0 -9 -6 -11 -14 -5 -18 -33 -5 -33 4
0 16 14 27 32 11 20 20 27 23 19 2 -7 0 -16 -6 -20 -6 -3 -12 -20 -14 -36 -2
-25 -8 -31 -32 -33 -24 -3 -28 -1 -22 14 8 20 -9 34 -39 33 -11 0 -14 -3 -7
-6 18 -7 15 -21 -9 -28 -16 -5 -18 -10 -9 -20 32 -39 -39 -52 -83 -17 -18 14
-34 27 -36 29 -2 2 -1 6 3 10 4 4 11 1 15 -6 5 -7 17 -11 27 -9 15 4 12 8 -16
20 -20 9 -39 12 -45 7 -16 -16 -28 -9 -14 8 13 15 11 16 -16 10 -16 -3 -24 -4
-17 -1 25 11 11 25 -20 20 -23 -4 -27 -3 -13 3 18 7 18 9 -10 23 -17 8 -36 13
-44 10 -8 -3 -11 0 -7 6 9 15 -30 34 -54 27 -12 -4 -20 -2 -20 4 0 6 6 11 13
12 6 0 2 4 -10 9 -13 5 -23 14 -23 19 0 6 -13 17 -30 26 -16 9 -30 23 -30 32
0 13 -4 11 -17 -7 -9 -14 -17 -26 -18 -28 -4 -5 -125 61 -125 68 0 5 -6 10
-12 13 -7 2 -5 3 5 2 9 -2 17 3 17 11 0 9 12 14 34 14 19 0 37 4 40 9 6 10
-49 21 -122 26 -24 2 -46 5 -48 8 -7 6 7 37 17 37 4 0 6 7 3 15 -5 11 -2 13
12 8 11 -4 15 -3 10 5 -11 18 93 74 129 68 17 -3 24 -2 18 1 -28 11 -11 24 25
18 24 -3 30 -2 18 3 -13 6 -16 11 -8 16 6 4 20 2 31 -4 13 -7 22 -7 26 0 3 5
-2 10 -12 10 -15 0 -15 2 -4 9 9 6 22 6 34 -1 23 -12 37 -1 17 13 -11 8 -5 9
23 4 37 -6 53 9 20 19 -10 3 1 3 25 0 40 -5 59 7 30 20 -7 3 7 2 32 -1 40 -6
44 -5 32 9 -12 14 -8 16 30 11 31 -3 39 -2 28 6 -22 15 -6 23 23 10 18 -8 30
-8 43 0 17 9 17 10 -6 11 -18 0 -21 3 -13 11 9 9 20 9 44 0 17 -6 36 -11 40
-11 16 0 9 18 -8 24 -10 3 11 3 47 1 61 -5 63 -4 40 10 -25 14 -24 14 22 15
26 0 50 5 53 10 3 6 9 10 12 10 3 0 0 -7 -7 -15z m-20 -90 c10 -11 22 -14 44
-9 27 6 29 5 17 -10 -7 -9 -10 -16 -5 -16 5 0 20 -9 33 -19 24 -18 24 -20 8
-45 -10 -14 -35 -35 -57 -46 -47 -24 -135 -28 -143 -6 -7 18 1 26 27 26 20 0
20 0 0 15 -18 15 -16 16 26 10 l45 -6 -41 20 c-22 11 -47 27 -54 36 -21 25
-40 18 -40 -15 0 -20 -5 -30 -15 -30 -27 0 -16 38 18 63 58 44 116 57 137 32z
m177 -35 c9 -18 13 -20 13 -7 0 9 5 17 10 17 12 0 13 -15 1 -38 -4 -9 -20 -42
-34 -72 -15 -30 -27 -47 -27 -37 0 9 -6 17 -14 17 -23 0 -27 16 -11 46 8 16
15 39 15 52 0 12 5 22 11 22 8 0 7 6 -2 16 -12 14 -11 16 6 13 11 -2 25 -15
32 -29z m-69 -142 c-6 -18 -28 -21 -28 -4 0 9 7 16 16 16 9 0 14 -5 12 -12z
m-928 -58 c-24 -15 7 -40 51 -40 43 0 49 -9 19 -28 -17 -10 -26 -8 -60 14 -22
15 -40 29 -40 32 0 11 33 42 39 37 3 -4 -1 -10 -9 -15z m940 -20 c0 -5 -4 -10
-10 -10 -5 0 -10 5 -10 10 0 6 5 10 10 10 6 0 10 -4 10 -10z m-20 -51 c0 -7
-7 -5 -16 7 -14 18 -15 16 -9 -21 6 -38 6 -39 -10 -20 -15 19 -16 18 -11 -25
3 -25 3 -37 0 -27 -7 21 -24 23 -24 2 0 -19 3 -19 -55 9 l-49 23 44 23 c25 13
58 33 73 46 25 21 30 22 43 10 8 -8 14 -20 14 -27z m-215 -98 c3 -6 17 -6 36
1 21 7 37 7 54 0 26 -12 58 -69 44 -78 -5 -3 -9 2 -9 11 0 13 -9 9 -37 -14
-30 -25 -47 -31 -85 -31 -78 0 -117 27 -102 72 9 30 86 60 99 39z m152 -33
c-3 -8 -6 -5 -6 6 -1 11 2 17 5 13 3 -3 4 -12 1 -19z m-467 -48 c0 -5 -5 -10
-11 -10 -5 0 -7 5 -4 10 3 6 8 10 11 10 2 0 4 -4 4 -10z m67 -36 c-3 -3 -12
-4 -19 -1 -8 3 -5 6 6 6 11 1 17 -2 13 -5z m411 -97 c12 -29 40 -73 62 -97 22
-24 40 -47 40 -51 0 -12 -49 -39 -70 -39 -55 0 -100 80 -86 150 3 16 9 44 12
60 4 17 9 30 13 30 4 0 17 -24 29 -53z m-94 -54 c-6 -9 -25 -24 -42 -32 -17
-9 -32 -19 -32 -23 0 -11 18 -10 25 2 8 13 45 13 45 0 0 -16 -89 -108 -110
-115 -11 -4 -20 -20 -24 -45 -3 -21 -17 -52 -31 -68 -14 -17 -25 -33 -25 -36
0 -19 -58 -76 -76 -76 -51 0 -68 78 -30 138 12 21 34 62 49 92 37 76 51 90
146 155 77 52 85 55 100 41 12 -12 13 -21 5 -33z m36 -116 c0 -13 5 -28 12
-35 9 -9 6 -14 -13 -21 -28 -11 -49 8 -49 45 0 22 11 32 38 33 6 1 12 -9 12
-22z m180 -63 c0 -15 -9 -27 -27 -36 -16 -7 -28 -19 -28 -27 0 -17 -52 -46
-122 -68 -29 -9 -53 -22 -53 -29 0 -7 -15 -23 -32 -36 -48 -33 -76 -67 -98
-115 -23 -50 -39 -53 -80 -15 -27 25 -29 30 -21 66 7 30 30 60 97 127 75 75
95 89 143 104 66 19 116 32 154 40 15 3 27 9 27 14 0 5 9 7 20 4 13 -3 20 -14
20 -29z m-246 11 c3 -10 -5 -20 -25 -31 -41 -21 -59 -5 -28 25 27 25 45 27 53
6z m130 -179 c-7 -29 -14 -32 -32 -14 -18 18 -15 28 11 37 28 11 29 9 21 -23z
m-64 -11 c0 -8 -7 -15 -15 -15 -16 0 -20 12 -8 23 11 12 23 8 23 -8z m87 -17
c-3 -8 -6 -5 -6 6 -1 11 2 17 5 13 3 -3 4 -12 1 -19z"/>
<path d="M2521 3019 c-1 -9 -12 -22 -26 -29 -22 -12 -34 -30 -20 -30 15 0 57
50 52 61 -4 11 -6 10 -6 -2z"/>
<path d="M2024 2775 c32 -17 56 -19 56 -6 0 10 -34 21 -65 21 -16 0 -14 -3 9
-15z"/>
<path d="M1951 2773 c-9 -4 -3 -10 19 -19 40 -17 61 -7 25 12 -15 8 -28 14
-29 13 0 0 -7 -3 -15 -6z"/>
<path d="M1880 2751 c0 -10 35 -21 70 -20 23 0 22 1 -9 14 -38 17 -61 19 -61
6z"/>
<path d="M1810 2731 c0 -9 50 -21 84 -20 18 0 16 3 -9 14 -34 16 -75 19 -75 6z"/>
<path d="M1760 2706 c29 -18 90 -22 73 -5 -6 6 -30 13 -54 15 -43 5 -43 5 -19
-10z"/>
<path d="M1665 2693 c11 -3 24 -9 30 -14 12 -12 65 -12 65 0 0 10 -51 22 -89
20 -20 -1 -22 -2 -6 -6z"/>
<path d="M2103 2603 c9 -2 23 -2 30 0 6 3 -1 5 -18 5 -16 0 -22 -2 -12 -5z"/>
<path d="M2043 2583 c9 -2 23 -2 30 0 6 3 -1 5 -18 5 -16 0 -22 -2 -12 -5z"/>
<path d="M2328 2884 c13 -9 30 -13 40 -9 15 6 15 8 -3 15 -11 5 -29 9 -40 9
-18 1 -18 0 3 -15z"/>
<path d="M2277 2883 c-4 -3 2 -12 13 -20 26 -18 48 -6 23 13 -21 15 -27 17
-36 7z"/>
<path d="M1750 3370 c0 -5 7 -7 15 -4 8 4 15 8 15 10 0 2 -7 4 -15 4 -8 0 -15
-4 -15 -10z"/>
<path d="M2798 3373 c7 -3 16 -2 19 1 4 3 -2 6 -13 5 -11 0 -14 -3 -6 -6z"/>
<path d="M2896 3342 c-2 -4 -1 -14 5 -22 7 -12 9 -10 9 8 0 23 -5 28 -14 14z"/>
<path d="M1655 3330 c4 -6 11 -8 16 -5 14 9 11 15 -7 15 -8 0 -12 -5 -9 -10z"/>
<path d="M1560 3290 c0 -5 5 -10 10 -10 6 0 10 5 10 10 0 6 -4 10 -10 10 -5 0
-10 -4 -10 -10z"/>
<path d="M2990 3284 c0 -8 5 -12 10 -9 6 3 10 10 10 16 0 5 -4 9 -10 9 -5 0
-10 -7 -10 -16z"/>
<path d="M1460 3241 c0 -17 18 -21 24 -6 3 9 0 15 -9 15 -8 0 -15 -4 -15 -9z"/>
<path d="M3086 3243 c-11 -11 -6 -23 9 -23 8 0 15 4 15 9 0 13 -16 22 -24 14z"/>
<path d="M1376 3181 c-4 -5 -2 -12 3 -15 5 -4 12 -2 15 3 4 5 2 12 -3 15 -5 4
-12 2 -15 -3z"/>
<path d="M3170 3180 c0 -5 5 -10 10 -10 6 0 10 5 10 10 0 6 -4 10 -10 10 -5 0
-10 -4 -10 -10z"/>
<path d="M1290 3110 c0 -5 5 -10 10 -10 6 0 10 5 10 10 0 6 -4 10 -10 10 -5 0
-10 -4 -10 -10z"/>
<path d="M3260 3110 c0 -5 5 -10 10 -10 6 0 10 5 10 10 0 6 -4 10 -10 10 -5 0
-10 -4 -10 -10z"/>
<path d="M1210 3035 c0 -8 5 -15 10 -15 6 0 10 7 10 15 0 8 -4 15 -10 15 -5 0
-10 -7 -10 -15z"/>
<path d="M3340 3040 c0 -5 5 -10 10 -10 6 0 10 5 10 10 0 6 -4 10 -10 10 -5 0
-10 -4 -10 -10z"/>
<path d="M1130 2970 c0 -5 5 -10 10 -10 6 0 10 5 10 10 0 6 -4 10 -10 10 -5 0
-10 -4 -10 -10z"/>
<path d="M3417 2974 c-8 -8 1 -24 14 -24 5 0 9 7 9 15 0 15 -12 20 -23 9z"/>
<path d="M1060 2880 c0 -5 5 -10 10 -10 6 0 10 5 10 10 0 6 -4 10 -10 10 -5 0
-10 -4 -10 -10z"/>
<path d="M3490 2880 c0 -5 5 -10 10 -10 6 0 10 5 10 10 0 6 -4 10 -10 10 -5 0
-10 -4 -10 -10z"/>
<path d="M1364 2806 c-9 -22 -1 -48 18 -60 24 -15 32 -1 22 36 -10 35 -31 48
-40 24z"/>
<path d="M1001 2794 c0 -11 3 -14 6 -6 3 7 2 16 -1 19 -3 4 -6 -2 -5 -13z"/>
<path d="M3561 2794 c0 -11 3 -14 6 -6 3 7 2 16 -1 19 -3 4 -6 -2 -5 -13z"/>
<path d="M1292 2720 c-31 -13 -40 -40 -18 -55 14 -11 26 -10 68 6 60 22 62 23
46 36 -20 16 -71 23 -96 13z"/>
<path d="M940 2704 c0 -8 5 -12 10 -9 6 3 10 10 10 16 0 5 -4 9 -10 9 -5 0
-10 -7 -10 -16z"/>
<path d="M3610 2705 c0 -8 5 -15 10 -15 6 0 10 7 10 15 0 8 -4 15 -10 15 -5 0
-10 -7 -10 -15z"/>
<path d="M886 2621 c-4 -7 -5 -15 -2 -18 9 -9 19 4 14 18 -4 11 -6 11 -12 0z"/>
<path d="M3670 2615 c0 -8 4 -15 10 -15 5 0 7 7 4 15 -4 8 -8 15 -10 15 -2 0
-4 -7 -4 -15z"/>
<path d="M2483 2575 c0 -22 2 -30 4 -17 2 12 2 30 0 40 -3 9 -5 -1 -4 -23z"/>
<path d="M3716 2521 c-4 -5 -2 -12 3 -15 5 -4 12 -2 15 3 4 5 2 12 -3 15 -5 4
-12 2 -15 -3z"/>
<path d="M796 2421 c-4 -7 -5 -15 -2 -18 9 -9 19 4 14 18 -4 11 -6 11 -12 0z"/>
<path d="M3760 2416 c0 -9 5 -16 10 -16 6 0 10 4 10 9 0 6 -4 13 -10 16 -5 3
-10 -1 -10 -9z"/>
<path d="M760 2310 c0 -5 5 -10 10 -10 6 0 10 5 10 10 0 6 -4 10 -10 10 -5 0
-10 -4 -10 -10z"/>
<path d="M3790 2310 c0 -5 5 -10 10 -10 6 0 10 5 10 10 0 6 -4 10 -10 10 -5 0
-10 -4 -10 -10z"/>
<path d="M725 2200 c3 -5 10 -10 16 -10 5 0 9 5 9 10 0 6 -7 10 -16 10 -8 0
-12 -4 -9 -10z"/>
<path d="M3810 2206 c0 -2 7 -6 15 -10 8 -3 15 -1 15 4 0 6 -7 10 -15 10 -8 0
-15 -2 -15 -4z"/>
<path d="M705 2100 c-3 -5 1 -10 10 -10 9 0 13 5 10 10 -3 6 -8 10 -10 10 -2
0 -7 -4 -10 -10z"/>
<path d="M3845 2101 c-3 -5 -1 -12 5 -16 5 -3 10 1 10 9 0 18 -6 21 -15 7z"/>
<path d="M2486 1973 c8 -33 31 -75 79 -146 45 -66 46 -54 2 15 -45 72 -50 86
-29 97 9 6 12 11 7 11 -6 0 -23 12 -38 26 l-28 26 7 -29z"/>
<path d="M2590 1971 c0 -6 4 -11 9 -11 5 0 11 -11 15 -23 4 -19 23 -30 88 -55
109 -41 128 -46 128 -33 0 6 -7 11 -15 11 -8 0 -23 4 -33 9 -9 5 -30 15 -47
22 -16 7 -50 27 -75 44 -65 45 -70 47 -70 36z"/>
<path d="M2853 1833 c9 -2 23 -2 30 0 6 3 -1 5 -18 5 -16 0 -22 -2 -12 -5z"/>
<path d="M2616 1755 c4 -8 11 -15 16 -15 6 0 5 6 -2 15 -7 8 -14 15 -16 15 -2
0 -1 -7 2 -15z"/>
<path d="M102 1208 l3 -203 30 -1 c51 -2 55 3 55 72 0 63 0 64 28 64 77 0 147
47 158 108 10 50 -11 107 -50 137 -30 23 -42 25 -130 25 l-96 0 2 -202z m212
136 c34 -35 36 -92 3 -129 -18 -21 -32 -27 -72 -28 l-50 -2 -3 93 -3 92 49 0
c40 0 54 -5 76 -26z"/>
<path d="M447 1403 c-4 -3 -7 -93 -7 -199 0 -228 -17 -206 160 -202 100 3 115
5 118 21 3 15 -6 17 -81 17 -120 0 -117 -2 -117 90 0 111 -1 110 86 110 67 0
74 2 74 20 0 17 -8 19 -77 22 l-78 3 0 40 0 40 95 5 c80 4 95 8 98 23 3 15 -8
17 -131 17 -73 0 -137 -3 -140 -7z"/>
<path d="M1040 1301 c0 -83 -3 -111 -13 -111 -7 0 -59 47 -117 105 -59 59
-108 101 -113 96 -9 -9 -10 -368 -1 -382 2 -5 11 -6 19 -2 12 4 15 28 15 115
0 60 4 108 9 106 5 -1 57 -49 116 -106 63 -60 111 -100 117 -94 4 4 7 91 6
193 -3 166 -5 184 -20 187 -16 3 -18 -7 -18 -107z"/>
<path d="M1142 1393 c3 -15 16 -18 81 -21 52 -2 77 -7 77 -15 0 -7 -36 -86
-80 -175 -44 -90 -78 -168 -74 -173 6 -10 243 -13 268 -3 9 3 16 12 16 20 0
11 -18 14 -79 14 -44 0 -82 3 -84 8 -2 4 33 84 79 177 46 94 83 173 84 178 0
4 -66 7 -146 7 -133 0 -145 -1 -142 -17z"/>
<path d="M1500 1211 c0 -172 2 -200 16 -205 24 -9 52 -7 59 4 5 7 8 225 5 383
0 13 -9 17 -40 17 l-40 0 0 -199z"/>
<path d="M1878 1381 c-51 -32 -98 -112 -98 -166 0 -115 91 -205 206 -205 64 0
127 25 132 54 4 17 -32 24 -42 7 -3 -4 -25 -13 -48 -20 -34 -9 -52 -8 -88 2
l-45 14 -3 140 -3 140 26 11 c41 19 116 15 153 -8 18 -11 37 -18 43 -15 40 25
-45 75 -128 75 -48 0 -68 -5 -105 -29z"/>
<path d="M2284 1396 c-41 -18 -102 -92 -110 -133 -23 -122 42 -226 157 -252
83 -19 183 31 225 111 17 32 19 125 3 165 -14 38 -67 92 -108 109 -42 17 -126
18 -167 0z m170 -48 c53 -35 76 -76 76 -138 0 -42 -6 -62 -26 -91 -44 -64
-133 -90 -199 -58 l-30 14 -3 130 c-3 125 -2 130 20 147 34 26 119 24 162 -4z"/>
<path d="M2733 1384 c-63 -37 -97 -101 -96 -180 0 -48 6 -70 24 -96 49 -72 97
-98 179 -98 57 0 130 31 130 55 0 20 -19 19 -61 -2 -42 -21 -94 -22 -134 -2
l-30 14 -3 136 -3 136 26 11 c41 19 116 15 153 -8 18 -11 37 -18 43 -15 19 12
8 32 -30 53 -56 32 -142 30 -198 -4z"/>
<path d="M3036 1392 c-3 -10 -5 -97 -5 -195 2 -192 5 -201 56 -195 l28 3 5
100 c5 99 5 100 31 103 24 3 30 -6 74 -93 50 -99 67 -121 84 -110 7 4 -9 45
-39 105 -28 55 -50 105 -50 112 0 7 16 26 35 41 37 29 65 83 65 124 0 36 -34
27 -38 -11 -4 -34 -78 -111 -113 -118 -44 -8 -49 -1 -49 78 l0 74 -39 0 c-29
0 -41 -5 -45 -18z"/>
<path d="M3390 1395 c0 -14 18 -21 70 -27 l25 -3 3 -177 2 -178 25 -6 c53 -13
54 -9 57 183 l3 178 45 5 c32 4 46 10 48 23 3 15 -9 17 -137 17 -118 0 -141
-2 -141 -15z"/>
<path d="M4032 1208 c3 -222 2 -219 64 -204 l24 6 -2 198 -3 197 -43 3 -42 3
2 -203z"/>
<path d="M4180 1205 l0 -206 132 3 c117 3 133 5 136 21 3 15 -6 17 -86 17 -73
0 -91 3 -96 16 -3 9 -6 92 -6 185 l0 169 -40 0 -40 0 0 -205z"/>
<path d="M3741 1278 c-23 -62 -56 -146 -72 -187 -16 -41 -25 -79 -21 -83 5 -5
22 5 39 21 28 27 36 29 98 27 61 -2 70 -5 87 -29 15 -20 28 -27 53 -27 43 0
51 13 32 53 -39 82 -92 200 -140 310 -6 15 -17 27 -23 27 -6 0 -30 -51 -53
-112z m65 -104 c14 -31 23 -63 20 -70 -8 -20 -106 -19 -106 1 0 18 47 125 55
125 3 0 17 -25 31 -56z"/>
<path d="M1660 794 c-8 -1 -42 -6 -74 -9 -49 -6 -65 -12 -88 -37 -51 -55 -29
-81 24 -28 51 52 123 30 134 -41 5 -28 1 -41 -21 -67 -23 -27 -34 -32 -70 -32
-24 0 -57 5 -72 11 -54 22 -89 38 -168 75 l-80 37 38 15 c59 24 49 43 -20 36
-32 -3 -69 -8 -83 -11 -14 -3 -54 -9 -90 -14 -85 -12 -162 -24 -230 -37 -30
-6 -93 -18 -140 -26 -47 -9 -105 -21 -130 -26 -25 -6 -62 -13 -82 -17 -21 -3
-43 -12 -49 -19 -20 -24 16 -27 99 -9 136 30 146 30 136 9 -17 -36 -10 -121
12 -151 31 -43 86 -66 137 -58 53 9 120 73 115 111 -5 37 -19 33 -42 -11 -26
-49 -59 -67 -111 -61 -83 10 -115 112 -56 178 28 32 32 33 104 32 93 -1 122
-17 297 -159 197 -161 318 -236 510 -318 61 -26 207 -69 295 -86 129 -26 179
-31 320 -31 240 0 430 37 650 126 172 69 326 168 540 348 112 94 161 119 241
120 70 1 109 -16 130 -56 22 -43 17 -84 -15 -120 -25 -28 -36 -33 -74 -33 -51
0 -82 21 -104 73 -16 38 -33 42 -33 7 0 -46 29 -86 76 -107 60 -26 112 -18
154 25 37 38 44 61 38 132 -5 60 0 64 58 46 65 -20 143 -33 159 -27 25 9 3 32
-38 39 -18 3 -52 10 -77 16 -62 14 -279 54 -385 72 -220 36 -338 50 -348 40
-10 -10 9 -25 47 -38 27 -8 20 -12 -108 -71 -152 -70 -203 -78 -250 -41 -35
28 -37 95 -3 127 36 34 78 29 117 -14 24 -27 35 -33 41 -23 9 15 0 34 -29 65
-15 16 -41 24 -109 33 -127 16 -223 15 -223 -3 0 -10 19 -15 74 -18 41 -2 78
-6 81 -10 4 -4 1 -26 -7 -50 -18 -53 -6 -99 37 -135 26 -23 35 -25 104 -21 65
4 90 11 171 50 151 73 170 80 256 85 112 8 114 -4 21 -99 -233 -237 -532 -404
-827 -462 -47 -9 -107 -21 -133 -26 -66 -13 -393 -13 -459 1 -248 49 -310 69
-488 152 -69 32 -187 104 -270 165 -93 69 -263 237 -258 254 7 20 111 22 174
3 30 -8 106 -40 169 -70 105 -50 121 -55 184 -55 63 0 72 3 99 29 42 42 50
109 19 149 -18 23 9 35 87 40 55 3 76 8 76 18 0 11 -19 14 -82 13 -46 -1 -90
-3 -98 -5z"/>
<path d="M1940 485 l0 -135 68 0 c54 0 72 4 85 18 20 22 22 74 5 102 -10 15
-10 22 0 32 6 6 12 27 12 44 0 49 -38 74 -111 74 l-59 0 0 -135z m130 91 c19
-23 8 -59 -23 -74 -37 -18 -47 -9 -47 44 0 42 1 44 29 44 16 0 34 -7 41 -14z
m-2 -122 c30 -20 25 -54 -9 -73 -41 -23 -59 -9 -59 44 0 40 2 45 23 45 12 0
33 -7 45 -16z"/>
<path d="M2420 485 l0 -135 30 0 c28 0 30 2 30 40 0 68 43 65 76 -6 9 -19 22
-34 30 -34 10 0 9 11 -8 45 l-22 45 21 22 c29 33 35 57 22 95 -14 43 -53 63
-124 63 l-55 0 0 -135z m138 89 c42 -29 23 -96 -33 -110 -37 -9 -45 3 -45 67
0 58 1 59 28 59 15 0 38 -7 50 -16z"/>
<path d="M2226 528 c-15 -40 -36 -95 -47 -122 -21 -54 -18 -68 9 -43 24 22
110 23 118 2 4 -9 19 -15 40 -15 l34 0 -13 33 c-37 86 -101 217 -107 217 -4 0
-19 -33 -34 -72z m47 -75 c18 -44 11 -56 -29 -51 -31 3 -34 21 -12 66 16 31
23 28 41 -15z"/>
<path d="M1265 560 c-3 -5 -1 -10 4 -10 6 0 11 5 11 10 0 6 -2 10 -4 10 -3 0
-8 -4 -11 -10z"/>
<path d="M3285 560 c-3 -5 1 -10 10 -10 9 0 13 5 10 10 -3 6 -8 10 -10 10 -2
0 -7 -4 -10 -10z"/>
<path d="M1350 496 c0 -9 5 -16 10 -16 6 0 10 4 10 9 0 6 -4 13 -10 16 -5 3
-10 -1 -10 -9z"/>
<path d="M3195 490 c-3 -5 1 -10 9 -10 9 0 16 5 16 10 0 6 -4 10 -9 10 -6 0
-13 -4 -16 -10z"/>
<path d="M1440 430 c0 -5 5 -10 10 -10 6 0 10 5 10 10 0 6 -4 10 -10 10 -5 0
-10 -4 -10 -10z"/>
<path d="M3110 430 c0 -5 5 -10 10 -10 6 0 10 5 10 10 0 6 -4 10 -10 10 -5 0
-10 -4 -10 -10z"/>
<path d="M1535 370 c3 -5 10 -10 16 -10 5 0 9 5 9 10 0 6 -7 10 -16 10 -8 0
-12 -4 -9 -10z"/>
<path d="M3010 370 c0 -5 4 -10 9 -10 6 0 13 5 16 10 3 6 -1 10 -9 10 -9 0
-16 -4 -16 -10z"/>
<path d="M2915 331 c-3 -5 -1 -12 5 -16 5 -3 10 1 10 9 0 18 -6 21 -15 7z"/>
<path d="M1635 320 c3 -5 8 -10 11 -10 2 0 4 5 4 10 0 6 -5 10 -11 10 -5 0 -7
-4 -4 -10z"/>
<path d="M1735 280 c3 -5 10 -10 16 -10 5 0 9 5 9 10 0 6 -7 10 -16 10 -8 0
-12 -4 -9 -10z"/>
<path d="M2810 280 c0 -5 4 -10 9 -10 6 0 13 5 16 10 3 6 -1 10 -9 10 -9 0
-16 -4 -16 -10z"/>
<path d="M1840 244 c0 -8 5 -12 10 -9 6 4 8 11 5 16 -9 14 -15 11 -15 -7z"/>
<path d="M2715 240 c3 -5 8 -10 11 -10 2 0 4 5 4 10 0 6 -5 10 -11 10 -5 0 -7
-4 -4 -10z"/>
<path d="M1950 214 c0 -8 5 -12 10 -9 6 3 10 10 10 16 0 5 -4 9 -10 9 -5 0
-10 -7 -10 -16z"/>
<path d="M2600 220 c0 -5 5 -10 10 -10 6 0 10 5 10 10 0 6 -4 10 -10 10 -5 0
-10 -4 -10 -10z"/>
<path d="M2060 199 c0 -11 4 -18 10 -14 5 3 7 12 3 20 -7 21 -13 19 -13 -6z"/>
<path d="M2496 211 c-4 -7 -5 -15 -2 -18 9 -9 19 4 14 18 -4 11 -6 11 -12 0z"/>
<path d="M2165 201 c-3 -5 -1 -12 5 -16 5 -3 10 1 10 9 0 18 -6 21 -15 7z"/>
<path d="M2280 184 c0 -8 5 -12 10 -9 6 3 10 10 10 16 0 5 -4 9 -10 9 -5 0
-10 -7 -10 -16z"/>
<path d="M2390 190 c0 -5 5 -10 10 -10 6 0 10 5 10 10 0 6 -4 10 -10 10 -5 0
-10 -4 -10 -10z"/>
</g>
</svg>
